HIERARCHY
ROOT SpineBase
{
  OFFSET 0.000000 0.000000 0.000000
  CHANNELS 6 Xposition Yposition Zposition Zrotation Xrotation Yrotation
  JOINT SpineMid
  {
    OFFSET 0.000000 19.571262 0.000000
    CHANNELS 3 Zrotation Xrotation Yrotation
    JOINT SpineShoulder
    {
      OFFSET 0.013428 14.949861 -0.636757
      CHANNELS 3 Zrotation Xrotation Yrotation
      JOINT Neck
      {
        OFFSET -0.004738 5.158005 -0.451507
        CHANNELS 3 Zrotation Xrotation Yrotation
        JOINT Head
        {
          OFFSET -1.259237 -5.600648 -2.455731
          CHANNELS 3 Zrotation Xrotation Yrotation
          End Site
          {
            OFFSET 0 0 0
          }
        }
      }
      JOINT ShoulderLeft
      {
        OFFSET -2.722458 6.041344 -1.089408
        CHANNELS 3 Zrotation Xrotation Yrotation
        JOINT ElbowLeft
        {
          OFFSET 1.858700 -17.102688 -5.236221
          CHANNELS 3 Zrotation Xrotation Yrotation
          JOINT WristLeft
          {
            OFFSET -2.591991 -18.319589 -2.610439
            CHANNELS 3 Zrotation Xrotation Yrotation
            JOINT HandLeft
            {
              OFFSET -0.794689 -4.764506 0.431513
              CHANNELS 3 Zrotation Xrotation Yrotation
              JOINT HandTipLeft
              {
                OFFSET -0.236271 -1.092655 -1.832549
                CHANNELS 3 Zrotation Xrotation Yrotation
                End Site
                {
                  OFFSET 0 0 0
                }
              }
              JOINT ThumbLeft
              {
                OFFSET -0.432045 -0.101998 -2.732300
                CHANNELS 3 Zrotation Xrotation Yrotation
                End Site
                {
                  OFFSET 0 0 0
                }
              }
            }
          }
        }
      }
      JOINT ShoulderRight
      {
        OFFSET -5.712814 -10.866860 -9.151716
        CHANNELS 3 Zrotation Xrotation Yrotation
        JOINT ElbowRight
        {
          OFFSET 1.790272 1.892399 1.201406
          CHANNELS 3 Zrotation Xrotation Yrotation
          JOINT WristRight
          {
            OFFSET 2.601482 14.103276 0.386217
            CHANNELS 3 Zrotation Xrotation Yrotation
            JOINT HandRight
            {
              OFFSET 0.504154 3.070158 -1.491724
              CHANNELS 3 Zrotation Xrotation Yrotation
              JOINT HandTipRight
              {
                OFFSET -0.162923 3.261441 0.214098
                CHANNELS 3 Zrotation Xrotation Yrotation
                End Site
                {
                  OFFSET 0 0 0
                }
              }
              JOINT ThumbRight
              {
                OFFSET -3.152593 0.040846 -1.750799
                CHANNELS 3 Zrotation Xrotation Yrotation
                End Site
                {
                  OFFSET 0 0 0
                }
              }
            }
          }
        }
      }
    }
  }
  JOINT HipLeft
  {
    OFFSET -1.095232 1.035855 -3.159177
    CHANNELS 3 Zrotation Xrotation Yrotation
    JOINT KneeLeft
    {
      OFFSET -7.781588 -13.949452 12.121821
      CHANNELS 3 Zrotation Xrotation Yrotation
      JOINT AnkleLeft
      {
        OFFSET -1.831059 -27.791158 4.613150
        CHANNELS 3 Zrotation Xrotation Yrotation
        JOINT FootLeft
        {
          OFFSET -7.485915 -2.350065 0.256480
          CHANNELS 3 Zrotation Xrotation Yrotation
          End Site
          {
            OFFSET 0 0 0
          }
        }
      }
    }
  }
  JOINT HipRight
  {
    OFFSET -1.347166 -1.276020 -2.419635
    CHANNELS 3 Zrotation Xrotation Yrotation
    JOINT KneeRight
    {
      OFFSET -3.209545 -16.902462 4.682627
      CHANNELS 3 Zrotation Xrotation Yrotation
      JOINT AnkleRight
      {
        OFFSET 3.140361 -20.375047 -2.291627
        CHANNELS 3 Zrotation Xrotation Yrotation
        JOINT FootRight
        {
          OFFSET -2.301307 8.629520 -1.650628
          CHANNELS 3 Zrotation Xrotation Yrotation
          End Site
          {
            OFFSET 0 0 0
          }
        }
      }
    }
  }
}
MOTION
Frames: 9
Frame Time: 0.033333
182.615592 103.120115 341.601794 -0.000000 0.000000 -108.812055 -0.000000 0.000000 108.812055 -0.000000 0.000000 0.000000 -0.000000 0.000000 0.000000 0.000000 0.000000 0.000000 -0.000000 0.000000 0.000000 -0.000000 0.000000 0.000000 -0.000000 0.000000 0.000000 -0.000000 0.000000 0.000000 0.000000 0.000000 0.000000 0.000000 0.000000 0.000000 -0.000000 0.000000 0.000000 -0.000000 0.000000 0.000000 -0.000000 0.000000 0.000000 -0.000000 0.000000 0.000000 0.000000 0.000000 0.000000 0.000000 0.000000 0.000000 -0.000000 0.000000 108.812055 -0.000000 0.000000 0.000000 -0.000000 0.000000 0.000000 0.000000 0.000000 0.000000 -0.000000 0.000000 108.812055 -0.000000 0.000000 0.000000 -0.000000 0.000000 0.000000 0.000000 0.000000 0.000000
181.909402 101.946214 341.063409 -0.956916 0.048612 -121.797399 -0.462937 0.838902 121.801194 -0.000000 0.000000 0.000000 -13.398154 10.459616 4.475130 0.000000 0.000000 0.000000 -6.235359 -2.615980 1.503389 13.639353 -0.756888 -2.538225 4.206780 -5.786045 3.690500 -4.478719 -17.654254 -12.744880 0.000000 0.000000 0.000000 0.000000 0.000000 0.000000 -111.969402 37.470168 46.425168 110.971185 -28.027367 50.352497 1.659454 -2.762843 2.786178 -9.607905 9.644969 -0.982450 0.000000 0.000000 0.000000 0.000000 0.000000 0.000000 1.870961 1.102563 122.066055 1.602132 1.561135 -0.207972 -0.572810 -0.229452 2.364507 0.000000 0.000000 0.000000 0.000750 2.000891 122.186252 -5.510627 -5.967963 -1.156767 4.388735 8.558583 0.661187 0.000000 0.000000 0.000000
181.337046 101.000783 340.706397 -1.715072 -0.044434 -125.609181 -1.218796 0.264192 125.589102 0.705398 0.096610 0.032710 -45.694098 26.056060 21.377939 0.000000 0.000000 0.000000 -11.688804 -5.592732 2.501262 26.260056 -2.911026 -5.017731 11.914693 -12.082658 9.314568 -17.091446 -30.481982 -22.937915 0.000000 0.000000 0.000000 0.000000 0.000000 0.000000 -128.900433 34.899549 55.314798 126.070672 -21.067926 58.707557 2.266794 -4.471286 4.515885 -16.025506 16.002838 -0.647752 0.000000 0.000000 0.000000 0.000000 0.000000 0.000000 2.961265 2.148788 126.076052 2.764905 2.705744 -0.453974 -0.583280 0.091883 2.648794 0.000000 0.000000 0.000000 -0.377162 3.519112 126.309075 -10.265371 -10.891117 -2.440477 7.584764 14.216617 0.449738 0.000000 0.000000 0.000000
180.898522 100.283824 340.530758 -2.291493 -0.273403 -126.136537 -1.659960 0.292812 126.109119 0.952436 0.178576 0.044453 -86.470222 29.604829 48.056880 0.000000 0.000000 0.000000 -16.301445 -7.189373 3.315636 37.092263 -6.055244 -6.851642 21.453439 -16.842533 16.136242 -31.014289 -34.445393 -27.379812 0.000000 0.000000 0.000000 0.000000 0.000000 0.000000 -134.781008 34.119727 58.503645 130.521655 -17.415806 61.558878 2.619326 -5.586243 5.638951 -20.659411 19.798277 0.022685 0.000000 0.000000 0.000000 0.000000 0.000000 0.000000 3.429176 2.811505 126.774866 3.462544 3.401948 -0.688726 0.040871 0.944325 0.835044 0.000000 0.000000 0.000000 -0.759594 4.628643 127.085747 -14.200076 -14.719988 -3.694873 9.492637 16.875501 -0.342958 0.000000 0.000000 0.000000
180.593830 99.795336 340.536490 -2.698755 -0.635642 -124.318130 -1.982876 0.351079 124.279615 1.132012 0.272670 0.051142 -104.909574 25.572006 59.904804 0.000000 0.000000 0.000000 -19.938916 -7.860238 4.050833 45.727327 -9.603147 -7.753459 30.032022 -19.148532 22.278862 -41.228484 -34.863774 -27.170247 0.000000 0.000000 0.000000 0.000000 0.000000 0.000000 -138.785300 33.951893 60.887631 132.915019 -14.959799 63.718724 3.008218 -6.299033 6.366509 -24.096796 21.644333 0.642008 0.000000 0.000000 0.000000 0.000000 0.000000 0.000000 3.301892 3.048233 125.126400 3.672407 3.623992 -0.878522 1.642268 2.456916 -3.844494 0.000000 0.000000 0.000000 -1.019936 5.416883 125.459923 -17.315077 -17.547298 -4.799530 9.950799 16.422373 -1.589818 0.000000 0.000000 0.000000
180.422972 99.535320 340.723596 -2.945522 -1.131357 -119.427083 -2.182382 0.501748 119.373522 1.245715 0.374942 0.052126 -110.328766 23.630193 63.342115 0.000000 0.000000 0.000000 -22.578305 -7.587624 4.826260 52.065214 -13.064302 -7.711223 36.432533 -19.778926 26.654762 -47.761819 -34.902726 -25.126236 0.000000 0.000000 0.000000 0.000000 0.000000 0.000000 -142.607327 34.047681 63.409277 134.644778 -13.078088 66.007273 3.553880 -6.706243 6.804623 -26.634512 21.943079 1.047654 0.000000 0.000000 0.000000 0.000000 0.000000 0.000000 2.584448 2.913068 120.407549 3.375298 3.347443 -1.007757 5.150531 4.836847 -13.519775 0.000000 0.000000 0.000000 -1.010425 5.965789 120.703350 -19.642778 -19.507114 -5.679490 8.769588 12.672550 -3.380098 0.000000 0.000000 0.000000
180.363347 99.515608 341.237152 -3.028590 -2.053209 -107.284786 -2.340259 0.866981 107.209134 1.505459 0.077667 0.063038 -111.112470 26.013640 65.780717 0.000000 0.000000 0.000000 -24.730083 -5.610426 6.080681 57.388641 -17.275741 -6.404162 38.344559 -20.160071 29.272909 -51.081320 -33.768154 -26.475864 0.000000 0.000000 0.000000 0.000000 0.000000 0.000000 -149.824122 34.967086 68.814456 134.807576 -11.574503 70.331714 14.351996 -22.497228 16.025960 -39.889664 38.601785 7.492267 0.000000 0.000000 0.000000 0.000000 0.000000 0.000000 0.645803 3.629216 109.352608 1.069186 3.082332 -2.072899 17.108796 7.191744 -40.857858 0.000000 0.000000 0.000000 -0.911548 5.487319 108.374005 -20.827219 -21.729748 -6.382999 4.213772 2.727051 -7.102670 0.000000 0.000000 0.000000
180.495917 99.780230 342.011515 -2.910458 -3.153572 -46.157361 -0.698299 2.602602 46.049536 1.515944 0.848443 0.052602 -101.348321 31.158576 60.397713 0.000000 0.000000 0.000000 -24.733683 -3.631747 6.718870 59.611865 -20.608614 -4.170747 44.926887 -20.158616 32.447010 -53.023150 -35.940718 -14.320408 0.000000 0.000000 0.000000 0.000000 0.000000 0.000000 -160.050686 34.517225 75.395433 138.019882 -8.130320 76.141978 9.384835 -9.846998 8.649055 -32.892829 18.345518 1.181500 0.000000 0.000000 0.000000 0.000000 0.000000 0.000000 2.052768 4.654941 48.304744 -0.853148 0.946974 -2.200927 32.744535 2.372326 -84.554106 0.000000 0.000000 0.000000 4.782803 3.847166 47.348780 -21.740608 -21.028194 -6.544107 -7.065626 -9.976284 -13.022906 0.000000 0.000000 0.000000
180.514777 100.079981 342.537926 -3.006049 -3.875284 -23.431244 0.307602 2.676859 23.268861 1.262938 0.792613 0.019708 -73.914787 33.782893 42.013043 0.000000 0.000000 0.000000 -23.443626 0.064059 7.715914 58.552429 -23.319291 -1.549812 46.260004 -22.879544 35.296548 -51.570633 -26.254469 -8.003147 0.000000 0.000000 0.000000 0.000000 0.000000 0.000000 -173.388660 37.530125 87.237602 138.303372 -4.746909 86.940849 7.049209 3.895161 2.749985 -24.990828 2.266883 -1.692700 0.000000 0.000000 0.000000 0.000000 0.000000 0.000000 4.271689 6.232429 25.873597 -2.596947 -0.508798 -2.718763 35.627021 -0.333557 -98.201087 0.000000 0.000000 0.000000 5.832972 2.419514 24.653131 -20.626776 -19.815169 -6.103644 -12.987418 -20.101277 -18.728446 0.000000 0.000000 0.000000
